# xmcd
#
# Track frame offsets: 
#        150
#        9209
#        20638
#        32504
#        43166
#        55524
#        66260
#        76438
#        88888
#        97919
#        108079
#        121223
#
# Disc length: 1750 seconds
#
# Revision: 0
# Processed by: cddbd v1.5.2PL0 Copyright (c) Steve Scherf et al.
# Submitted via: ExactAudioCopy v1.3
#
DISCID=8906d40c
DTITLE=Loretta Lynn - I Like 'Em Country
DYEAR=1966
DGENRE=Country
TTITLE0=Two Mules Pull This Wagon
TTITLE1=It's Been So Long, Darling
TTITLE2=Sometimes You Just Can't Win
TTITLE3=If Teardrops Were Pennies
TTITLE4=Your Cheatin' Heart
TTITLE5=Go On And Go
TTITLE6=Cry Cry Cry
TTITLE7=The Home You're Tearin' Down
TTITLE8=Hurtin' For Certain
TTITLE9=Today Has Been A Day
TTITLE10=Jealous Heart
TTITLE11=Dear Uncle Sam
EXTD=
EXTT0=
EXTT1=
EXTT2=
EXTT3=
EXTT4=
EXTT5=
EXTT6=
EXTT7=
EXTT8=
EXTT9=
EXTT10=
EXTT11=
PLAYORDER=
